<svg preserveAspectRatio="none" overflow="visible" style="display: block;" width="82.1641" height="25.0012" viewBox="0 0 82.1641 25.0012" fill="none" xmlns="http://www.w3.org/2000/svg">
<g id="Frame 20" clip-path="url(#clip0_0_16)">
<path id="Union" d="M11.7537 16.6916C11.3066 16.2836 11.7065 15.7274 12.2429 16.0451C18.3837 19.6528 25.9769 21.8225 33.8201 21.8225C39.1096 21.8225 44.9287 20.7181 50.279 18.425C51.0872 18.0784 51.7631 18.9587 50.9734 19.551C46.1988 23.1045 39.2775 25.0012 33.3191 25.0012C24.9648 25.0011 17.4437 21.8807 11.7537 16.6916ZM47.2693 16.4201C49.9981 14.4812 54.4753 15.0407 54.9978 15.6906C55.52 16.3443 54.8619 20.8771 52.2976 23.0402C51.9042 23.3723 51.5286 23.1946 51.7038 22.7541C52.2797 21.3022 53.5703 18.0488 52.9587 17.258C52.3502 16.4711 48.9242 16.8864 47.3865 17.0705C46.9184 17.128 46.8474 16.7162 47.2693 16.4201Z" fill="#FF9900"/>
<path id="Union_2" d="M64.002 0.126953C67.775 0.127109 69.8174 3.39848 69.8174 7.55859C69.8174 11.5778 67.5604 14.7664 64.002 14.7666C60.2968 14.7666 58.2794 11.495 58.2793 7.41797C58.2793 3.31553 60.3217 0.126953 64.002 0.126953ZM6.1123 0C7.34968 1.51909e-05 8.96601 0.332309 9.94238 1.27832C11.1798 2.44477 11.0625 4.00161 11.0625 5.69531V9.69629C11.0625 10.8988 11.5556 11.4262 12.0205 12.0762C12.185 12.3073 12.221 12.5854 12.0137 12.7588C11.4952 13.1957 10.5724 14.0078 10.0645 14.4629L10.0566 14.4561C9.88856 14.6075 9.64551 14.6186 9.45605 14.5176C8.61204 13.8098 8.462 13.481 7.99707 12.8057C6.60231 14.2429 5.61519 14.6728 3.80566 14.6729C1.66705 14.6729 0.000201293 13.3403 0 10.6719C0 8.58815 1.1194 7.16798 2.71094 6.47461C4.09145 5.86074 6.0197 5.75273 7.49316 5.58301V5.25098C7.49316 4.64067 7.53962 3.91787 7.18555 3.39062C6.87437 2.91761 6.27995 2.72266 5.75781 2.72266C4.78878 2.72277 3.92297 3.22484 3.71191 4.26465C3.669 4.49577 3.50136 4.72354 3.27246 4.73438L0.804688 4.4668C0.597278 4.41982 0.368567 4.25006 0.425781 3.92871C0.994608 0.909988 3.6947 0 6.1123 0ZM39.4502 0C40.6876 1.52009e-05 42.3039 0.332309 43.2803 1.27832C44.5177 2.44477 44.4004 4.00161 44.4004 5.69531V9.69629C44.4004 10.8988 44.8935 11.4262 45.3584 12.0762C45.5229 12.3073 45.5589 12.5854 45.3516 12.7588C44.8331 13.1957 43.9103 14.0078 43.4023 14.4629L43.3945 14.4561C43.2264 14.6075 42.9834 14.6186 42.7939 14.5176C41.9499 13.8098 41.7999 13.481 41.335 12.8057C39.9402 14.2429 38.9531 14.6728 37.1436 14.6729C35.0049 14.6729 33.3381 13.3403 33.3379 10.6719C33.3379 8.58815 34.4573 7.16798 36.0488 6.47461C37.4293 5.86074 39.3576 5.75273 40.8311 5.58301V5.25098C40.8311 4.64067 40.8775 3.91787 40.5234 3.39062C40.2123 2.91761 39.6178 2.72266 39.0957 2.72266C38.1267 2.72277 37.2609 3.22484 37.0498 4.26465C37.0069 4.49577 36.8392 4.72354 36.6104 4.73438L34.1426 4.4668C33.9352 4.41982 33.7065 4.25006 33.7637 3.92871C34.3325 0.909988 37.0326 0 39.4502 0ZM27.5361 0.126953C28.6018 0.127069 29.7679 0.570794 30.4795 1.56738C31.284 2.67593 31.1192 4.2864 31.1191 5.69824L31.1162 14.0156C31.1162 14.2791 30.8977 14.4921 30.626 14.4922H28.0869C27.833 14.4741 27.629 14.2684 27.6289 14.0156V7.03125C27.6289 6.47526 27.6791 5.08911 27.5576 4.56152C27.3681 3.67688 26.7991 3.42682 26.0625 3.42676C25.4474 3.42676 24.8031 3.84238 24.542 4.50684C24.2809 5.17131 24.3057 6.28371 24.3057 7.03125V14.0156C24.3056 14.2791 24.0881 14.4921 23.8164 14.4922H21.2773C21.0199 14.4741 20.8194 14.2684 20.8193 14.0156L20.8154 7.03125C20.8154 5.56146 21.0551 3.39846 19.249 3.39844C17.6499 3.39844 17.5045 5.01291 17.4932 6.4375V14.0156C17.4931 14.2792 17.2747 14.4922 17.0029 14.4922H14.46C14.217 14.4741 14.0239 14.2902 14.0059 14.0557V0.87793C14.0059 0.614305 14.2243 0.404297 14.4961 0.404297H16.8672C17.1138 0.415178 17.3101 0.606611 17.3281 0.844727V2.56738H17.375C17.9938 0.902786 19.1562 0.126953 20.7227 0.126953C22.314 0.127002 23.3082 0.902853 24.0234 2.56738C24.6386 0.90273 26.0377 0.126953 27.5361 0.126953ZM78.5303 0.126953C79.6711 0.127019 80.7828 0.542219 81.498 1.67969C82.1632 2.73419 82.1641 4.50746 82.1641 5.78223V14.0771C82.1354 14.3082 81.9241 14.4921 81.6738 14.4922H79.124C78.8916 14.4741 78.698 14.3009 78.6729 14.0771V6.91895C78.6729 5.47805 78.837 3.36914 77.0811 3.36914C76.4625 3.36935 75.8938 3.7884 75.6113 4.42383C75.2537 5.22903 75.207 6.03073 75.207 6.91895V14.0156C75.2034 14.2792 74.9817 14.4922 74.71 14.4922H72.1777C71.924 14.4739 71.7208 14.2682 71.7207 14.0156L71.7168 0.833984C71.7384 0.592168 71.9496 0.404297 72.207 0.404297H74.5635C74.785 0.415115 74.9673 0.566859 75.0176 0.772461V2.78809H75.0645C75.7762 0.986048 76.7742 0.126953 78.5303 0.126953ZM56.3232 0.368164C56.5914 0.368164 56.8066 0.563115 56.8066 0.844727V2.45898C56.8031 2.72983 56.5773 3.0838 56.1768 3.64355L51.8457 9.8877C53.455 9.84798 55.1541 10.0894 56.6133 10.9199C56.9423 11.1077 57.0316 11.3825 57.0566 11.6533V13.665C57.0566 13.9395 56.7561 14.2608 56.4414 14.0947C53.8699 12.7333 50.4546 12.5854 47.6113 14.1094C47.3216 14.2682 47.0176 13.9502 47.0176 13.6758V11.7656C47.0176 11.4587 47.0212 10.9346 47.3252 10.4688L52.3428 3.20312H47.9766C47.7083 3.20312 47.4932 3.01118 47.4932 2.72949V0.844727C47.4932 0.559505 47.7084 0.368164 47.9658 0.368164H56.3232ZM7.49316 7.6416C5.65485 7.6416 3.71191 8.03909 3.71191 10.2275C3.71203 11.336 4.28153 12.0869 5.25781 12.0869C5.97281 12.0868 6.61251 11.6428 7.0166 10.9209C7.51731 10.0325 7.49316 9.19759 7.49316 8.19727V7.6416ZM40.8311 7.6416C38.9927 7.6416 37.0498 8.03909 37.0498 10.2275C37.0499 11.336 37.6194 12.0869 38.5957 12.0869C39.3107 12.0868 39.9504 11.6428 40.3545 10.9209C40.8552 10.0325 40.8311 9.19759 40.8311 8.19727V7.6416ZM64.0234 2.81641C62.1495 2.81641 62.0313 5.39489 62.0312 7.00195C62.0312 8.61259 62.0063 12.0508 64.002 12.0508C65.9721 12.0505 66.0654 9.27795 66.0654 7.58789C66.0654 6.47569 66.0191 5.14627 65.6865 4.0918C65.4004 3.17464 64.8316 2.81649 64.0234 2.81641Z" fill="#221F1F"/>
</g>
<defs>
<clipPath id="clip0_0_16">
<rect width="82.1641" height="25.0012" fill="white"/>
</clipPath>
</defs>
</svg>
